<?xml version="1.0" standalone="no"?>
<!DOCTYPE svg PUBLIC "-//W3C//DTD SVG 20010904//EN"
 "http://www.w3.org/TR/2001/REC-SVG-20010904/DTD/svg10.dtd">
<svg version="1.0" xmlns="http://www.w3.org/2000/svg"
 width="260.000000pt" height="260.000000pt" viewBox="0 0 260.000000 260.000000"
 preserveAspectRatio="xMidYMid meet">
<metadata>
Created by potrace 1.11, written by Peter Selinger 2001-2013
</metadata>
<g transform="translate(0.000000,260.000000) scale(0.100000,-0.100000)"
fill="#000000" stroke="none">
<path d="M1256 1923 c-15 -8 -35 -21 -44 -28 -51 -42 -462 -335 -471 -335 -5
0 -104 48 -220 106 -116 58 -219 107 -228 108 -29 5 -61 -14 -73 -43 -12 -29
-11 -30 110 -411 39 -124 87 -272 105 -330 77 -240 96 -296 111 -315 17 -23
36 -23 264 -10 176 10 795 10 980 0 225 -13 247 -12 266 6 14 14 75 195 211
624 138 437 137 430 106 457 -41 36 -54 32 -282 -82 -122 -60 -226 -110 -232
-110 -5 0 -117 78 -248 173 -131 96 -243 177 -251 182 -29 18 -77 22 -104 8z"/>
</g>
</svg>
